PathFileType	4	(X/Y/Z)	C:\Users\dbl\Desktop\20210112(1)\20210112\bx_y_0_1802.trc
DataRate	CameraRate	NumFrames	NumMarkers	Units	OrigDataRate	OrigDataStartFrame	OrigNumFrames
50.00	50.00	       4	43	mm	50.00	188	       375
Frame#	Time	Top.Head			R.Acromium			L.Acromium			Sternum			R.ASIS			L.ASIS			V.Sacral			R.Thigh.Upper			R.Thigh.Front			R.Thigh.Rear			R.Knee.Lat			R.Knee.Med			R.Shank.Upper			R.Shank.Front			R.Shank.Rear			R.Ankle.Lat			R.Midfoot.Lat			R.Toe.Lat			R.Toe.Tip			R.Toe.Med			R.Ankle.Med			R.Midfoot.Sup			R.Heel			L.Thigh.Upper			L.Thigh.Front			L.Thigh.Rear			L.Knee.Lat			L.Knee.Med			L.Shank.Upper			L.Shank.Front			L.Shank.Rear			L.Ankle.Lat			L.Midfoot.Lat			L.Toe.Lat			L.Toe.Tip			L.Toe.Med			L.Ankle.Med			L.Midfoot.Sup			L.Heel			origin1 front left			origin2 front right			origin 3 back right			origin 4 back leftt			
		X1	Y1	Z1	X2	Y2	Z2	X3	Y3	Z3	X4	Y4	Z4	X5	Y5	Z5	X6	Y6	Z6	X7	Y7	Z7	X8	Y8	Z8	X9	Y9	Z9	X10	Y10	Z10	X11	Y11	Z11	X12	Y12	Z12	X13	Y13	Z13	X14	Y14	Z14	X15	Y15	Z15	X16	Y16	Z16	X17	Y17	Z17	X18	Y18	Z18	X19	Y19	Z19	X20	Y20	Z20	X21	Y21	Z21	X22	Y22	Z22	X23	Y23	Z23	X24	Y24	Z24	X25	Y25	Z25	X26	Y26	Z26	X27	Y27	Z27	X28	Y28	Z28	X29	Y29	Z29	X30	Y30	Z30	X31	Y31	Z31	X32	Y32	Z32	X33	Y33	Z33	X34	Y34	Z34	X35	Y35	Z35	X36	Y36	Z36	X37	Y37	Z37	X38	Y38	Z38	X39	Y39	Z39	X40	Y40	Z40	X41	Y41	Z41	X42	Y42	Z42	X43	Y43	Z43	

188	3.740	-309.38013	100.52063	1327.15991	-462.55695	-80.30898	1061.16406	-466.89673	278.96707	1088.33215	-489.27490	88.54578	1088.70215	-785.60162	7.54947	819.66461	-783.82745	202.66006	885.06427	-967.95874	93.22068	859.08398	-760.97229	-76.21198	704.84235	-680.33667	-11.26828	731.33386	-669.57050	-64.71297	607.22357	-580.55542	-45.29815	552.15735	-541.68665	68.04517	536.60693	-567.60071	-42.72087	513.38367	-531.84821	7.04260	460.45477	-636.59698	-42.93988	455.91995	-752.54425	4.28583	211.01680	-662.26440	-59.90005	167.61032	-624.60156	-73.61313	161.53163	-561.95111	-45.08132	163.24182	-600.86108	21.21128	163.17300	-700.59296	87.72573	204.77985	-671.42218	61.38073	149.83945	-789.26935	66.50128	178.24767	-757.40778	290.41238	727.07263	-680.82483	232.14273	740.13232	-672.17474	305.26727	623.79852	-602.61591	280.93201	557.29004	-527.54346	177.36699	533.68964	-571.94635	282.65063	519.36963	-520.85156	237.52194	473.68555	-628.60150	280.92761	463.66370	-759.18073	218.63959	206.26715	-666.66058	294.67523	163.92833	-630.44464	302.91690	164.00002	-559.50800	263.09192	164.51236	-593.03925	221.61699	172.57191	-695.67377	148.67995	206.43881	-673.60504	169.85941	151.66507	-789.67133	163.62656	189.12447	-528.01984	304.28494	146.53395	-517.69171	-72.71329	143.11516	-875.85345	-78.48363	141.27144	-882.63116	296.08246	144.68706	
189	3.760	-311.18524	100.11546	1334.41772	-463.38177	-80.78046	1067.91528	-467.54510	278.52069	1094.44165	-489.67847	88.54165	1091.57117	-784.77386	7.12233	823.04791	-782.66132	202.40681	887.06964	-967.41943	93.30694	863.38574	-760.91119	-76.38625	707.69263	-679.84558	-11.69112	733.37177	-670.29962	-64.48534	608.49200	-581.81885	-45.52923	553.00781	-542.69043	67.77637	537.26361	-568.90436	-42.84256	514.14313	-533.00061	6.82978	461.11432	-637.69177	-43.06152	456.46753	-752.64319	4.29625	210.96632	-662.51624	-60.04130	167.42104	-624.69019	-73.82017	161.34329	-561.87946	-45.11855	163.27736	-600.86908	21.12711	163.23689	-700.79706	87.60367	205.05771	-671.52533	61.24450	149.90703	-789.29327	66.49292	178.20390	-757.06433	290.13232	729.87518	-680.12659	231.98193	742.31409	-674.77594	305.46912	626.80756	-604.89282	281.08893	560.13281	-528.53357	176.73050	534.34271	-572.90979	281.97427	520.17078	-522.50977	236.88573	474.07086	-629.47394	280.32147	464.29819	-759.24658	218.63785	206.24963	-666.60248	294.62323	163.95149	-630.41028	302.88611	163.96844	-559.62653	263.01767	164.62352	-593.06470	221.58269	172.52814	-695.74902	148.71198	206.48380	-673.57928	169.84633	151.61206	-789.77521	163.64479	189.12305	-528.02661	304.24704	146.52281	-517.70001	-72.69975	143.09955	-875.88336	-78.53201	141.25946	-882.64923	296.08655	144.68652	
190	3.780	-313.13733	99.73579	1342.17078	-464.24371	-81.20615	1075.01990	-468.16376	278.05447	1100.94104	-490.11969	88.52741	1094.58350	-783.87988	6.67230	826.54565	-781.44666	202.15503	889.14496	-966.76929	93.40057	867.98413	-760.83209	-76.63042	710.74615	-679.38953	-12.16488	735.55853	-671.04504	-64.29595	609.86005	-583.15594	-45.76302	553.94659	-543.77649	67.48797	537.94336	-570.30231	-42.99454	514.96118	-534.22479	6.49213	461.81583	-638.83673	-43.22175	457.00909	-752.75183	4.30381	210.94182	-662.69330	-60.18736	167.27707	-624.76660	-74.06281	161.23782	-561.92285	-45.12261	163.16479	-600.89612	21.06864	163.31660	-701.01172	87.48703	205.29936	-671.64929	61.13341	149.95522	-789.31250	66.48737	178.16080	-756.62231	289.74258	732.83350	-679.40436	231.79915	744.63477	-677.27307	305.56708	629.80487	-607.02972	281.21774	562.98712	-529.54669	176.10648	535.07428	-573.92535	281.28189	521.04834	-523.96985	236.07870	474.44513	-630.37482	279.67896	464.92871	-759.35999	218.58589	206.25452	-666.55811	294.58099	163.96629	-630.39606	302.90247	163.96957	-559.75061	262.95718	164.72180	-593.10333	221.52765	172.49077	-695.93958	148.71867	206.43677	-673.50494	169.79373	151.62079	-789.89099	163.68112	189.07884	-528.03430	304.22964	146.52487	-517.73169	-72.65316	143.06284	-875.89899	-78.59266	141.21117	-882.66223	296.08801	144.64984	
191	3.800	-315.21405	99.40892	1350.37109	-465.17551	-81.63894	1082.48328	-468.76389	277.60474	1107.84558	-490.59857	88.50261	1097.73865	-782.91827	6.19941	830.15497	-780.18347	201.90485	891.28900	-965.98120	93.48162	872.80627	-760.71527	-76.88709	713.89813	-678.89197	-12.68648	737.81665	-671.80530	-64.14857	611.33081	-584.52777	-46.03180	554.99023	-544.93439	67.12109	538.61395	-571.73242	-43.25791	515.82080	-535.49719	6.07253	462.54846	-640.05499	-43.43941	457.52628	-752.88916	4.25517	210.93362	-662.75610	-60.34071	167.22482	-624.83698	-74.37069	161.20540	-562.05554	-45.11700	162.91978	-600.92828	21.02717	163.39960	-701.18097	87.36941	205.46907	-671.72876	61.07358	149.97658	-789.32343	66.47904	178.12201	-756.08447	289.26212	735.96216	-678.63977	231.59311	747.08466	-679.65588	305.55481	632.78528	-606.19727	279.83267	562.74750	-530.59143	175.53558	535.89819	-575.00531	280.56860	522.01147	-525.19171	235.30957	474.97693	-631.31470	279.07632	465.59222	-759.50519	218.50246	206.25671	-666.54041	294.55975	163.98148	-630.39178	302.94772	163.98528	-559.83392	262.90210	164.76497	-593.15454	221.46890	172.45930	-696.20630	148.66519	206.33757	-673.44122	169.74783	151.66595	-790.00214	163.74222	189.00485	-528.03693	304.22415	146.54208	-517.76935	-72.59474	143.02127	-875.89886	-78.65641	141.14056	-882.65344	296.09604	144.61237	
